<?xml version="1.0" standalone="no"?>
<!DOCTYPE svg PUBLIC "-//W3C//DTD SVG 20010904//EN"
 "http://www.w3.org/TR/2001/REC-SVG-20010904/DTD/svg10.dtd">
<svg version="1.0" xmlns="http://www.w3.org/2000/svg"
 width="564.000000pt" height="564.000000pt" viewBox="0 0 564.000000 564.000000"
 preserveAspectRatio="xMidYMid meet">

<g transform="translate(0.000000,564.000000) scale(0.100000,-0.100000)"
fill="#000000" stroke="none">
<path d="M2174 5062 c4 -37 15 -53 94 -137 133 -141 198 -258 227 -409 24
-123 1 -200 -128 -446 -45 -85 -90 -174 -101 -197 -10 -24 -22 -43 -26 -43 -4
0 -28 23 -54 50 -64 68 -100 93 -171 119 -94 35 -120 51 -200 130 -85 83 -92
82 -82 -20 8 -70 38 -122 98 -165 85 -62 108 -81 147 -126 22 -26 53 -73 68
-105 25 -49 29 -70 29 -139 -1 -91 -40 -254 -63 -254 -7 0 -35 11 -62 25 -49
25 -80 32 -80 18 0 -9 57 -122 86 -170 l19 -32 -45 -91 c-44 -89 -45 -91 -60
-68 -26 41 -97 108 -115 108 -13 0 -16 -6 -11 -25 16 -62 18 -155 6 -246 -10
-77 -11 -117 -2 -181 6 -46 16 -118 22 -161 18 -141 79 -249 203 -363 l65 -60
-24 -94 c-14 -52 -65 -219 -114 -370 -49 -151 -99 -310 -112 -353 -14 -42 -26
-75 -29 -73 -2 2 -5 -12 -6 -32 -1 -21 -21 -95 -44 -167 -57 -174 -57 -199 5
-295 27 -41 62 -86 78 -99 38 -31 129 -61 182 -61 58 0 94 24 286 195 100 88
115 99 163 117 112 43 189 96 231 161 33 49 21 257 -14 257 -4 0 -12 17 -18
38 -14 45 -64 97 -86 89 -14 -6 -14 -10 0 -43 8 -20 13 -38 11 -40 -10 -10
-36 9 -41 31 -7 27 -70 85 -93 85 -11 0 -14 -6 -9 -22 19 -65 19 -91 1 -104
-24 -18 -55 -18 -55 -1 0 22 -70 97 -91 97 -23 0 -23 1 -4 -43 20 -49 19 -83
-4 -116 -23 -32 -33 -69 -35 -124 -1 -28 -7 -43 -21 -51 -10 -6 -25 -17 -33
-24 -40 -36 -102 -71 -117 -66 -12 5 -16 2 -13 -12 2 -13 -2 -18 -14 -16 -11
2 -18 -3 -18 -13 0 -8 -7 -15 -16 -15 -8 0 -12 -5 -9 -10 3 -6 -3 -14 -14 -18
-21 -8 -18 -17 13 -42 18 -14 19 -13 14 7 -5 18 -2 23 13 23 10 0 19 7 19 15
0 8 6 15 14 15 8 0 16 3 18 8 5 11 107 82 118 82 6 0 19 9 30 20 11 11 27 20
35 20 12 0 15 14 15 70 0 56 5 78 23 105 25 40 57 53 92 37 23 -11 38 -58 47
-145 2 -15 8 -27 13 -27 6 0 9 32 9 76 -1 55 -6 80 -18 93 -20 22 -13 28 40
36 68 11 78 -5 84 -131 5 -97 6 -106 20 -89 11 13 15 43 15 110 0 88 1 92 20
85 30 -11 45 -48 45 -115 0 -98 -14 -130 -76 -179 -56 -44 -176 -92 -244 -99
-33 -3 -33 -4 -12 -13 22 -9 20 -12 -40 -65 -85 -75 -222 -185 -247 -198 -29
-16 -79 -13 -134 6 -38 14 -60 31 -102 84 -30 37 -62 83 -71 103 -16 33 -16
39 1 98 10 35 25 68 33 75 8 6 11 17 7 23 -8 13 63 262 165 575 43 132 95 300
116 373 27 97 41 131 51 127 7 -3 19 -7 26 -10 25 -11 106 278 137 496 16 108
6 248 -20 281 -9 13 -33 55 -53 94 -20 39 -58 100 -85 135 -43 57 -162 257
-162 273 0 3 8 2 18 -4 9 -5 73 -35 142 -65 69 -31 143 -67 165 -79 22 -13 72
-42 112 -64 80 -47 71 -47 218 9 51 19 80 23 192 23 l132 1 -55 26 c-62 30
-87 49 -64 49 8 0 38 -12 67 -27 29 -14 56 -23 60 -19 4 4 -13 25 -37 48 -45
40 -32 35 24 -10 16 -13 35 -21 43 -18 8 4 20 -5 30 -22 14 -25 27 -31 107
-47 177 -35 160 -36 276 19 86 40 202 86 217 86 10 0 -2 -20 -38 -60 -22 -25
-52 -65 -66 -88 l-26 -44 31 -161 c17 -89 34 -190 38 -225 l7 -62 -52 -21
c-61 -26 -69 -44 -9 -23 34 12 47 12 65 3 36 -19 28 -26 -40 -33 -95 -11 -106
-26 -19 -26 56 0 72 -3 72 -14 0 -23 -13 -26 -66 -18 -27 5 -60 5 -74 2 -20
-5 -14 -8 30 -14 81 -12 86 -17 55 -54 -40 -48 -100 -66 -196 -59 -73 5 -109
17 -109 37 0 5 9 6 20 3 16 -4 32 7 65 43 43 46 54 72 38 88 -5 4 -8 20 -8 34
l0 27 -105 6 c-58 3 -111 4 -118 1 -22 -8 -6 -58 35 -114 28 -39 34 -54 26
-67 -26 -42 -97 -51 -193 -26 -66 17 -150 55 -150 67 0 5 29 8 65 7 36 -1 68
0 71 3 9 9 -92 28 -151 28 -43 0 -56 4 -65 19 -5 11 -7 22 -3 24 8 4 151 -15
197 -27 32 -8 35 11 3 23 -12 5 -65 14 -117 22 -52 7 -102 18 -111 26 -20 17
-29 17 -29 -2 0 -8 -6 -15 -12 -15 -35 -1 -154 -22 -160 -28 -4 -4 33 -4 84 1
83 9 93 8 105 -9 17 -23 17 -44 -1 -44 -30 0 -142 -41 -166 -61 -21 -17 -22
-19 -3 -10 30 15 186 52 192 45 3 -2 -3 -33 -12 -67 -48 -170 -70 -302 -70
-432 -1 -71 1 -151 3 -177 6 -56 0 -54 175 -63 131 -7 248 -20 310 -37 34 -9
37 -12 20 -19 -11 -4 -51 -8 -90 -8 -38 -1 -80 -4 -92 -7 -45 -12 -10 -24 73
-24 48 0 84 -4 84 -10 0 -10 88 -116 174 -210 149 -162 249 -287 241 -300 -14
-22 -23 -70 -15 -75 4 -3 23 19 40 47 58 95 129 178 147 171 17 -7 17 1 -8
110 -15 64 -7 90 29 95 34 5 61 -15 98 -74 20 -31 38 -54 40 -51 8 7 -33 107
-52 128 -23 25 -12 45 32 59 34 12 39 11 55 -9 10 -12 25 -47 34 -79 24 -84
28 -92 33 -52 2 19 -1 59 -8 88 -6 30 -10 55 -8 57 10 10 54 -24 72 -54 20
-35 26 -101 13 -152 -4 -16 -34 -49 -75 -83 -56 -46 -79 -57 -123 -65 -52 -8
-53 -9 -21 -16 17 -4 32 -11 32 -15 0 -4 -16 -37 -35 -74 -121 -233 -159 -270
-252 -247 -57 14 -130 54 -215 117 -65 48 -83 51 -50 9 79 -101 294 -195 363
-159 47 24 118 123 188 262 35 70 52 90 121 148 91 75 111 110 113 194 1 58
-26 126 -60 152 -10 7 -25 27 -33 43 -26 50 -120 100 -120 63 0 -7 7 -26 15
-42 27 -50 13 -50 -42 3 -42 39 -89 59 -104 44 -5 -5 5 -31 22 -58 26 -40 29
-52 20 -71 -10 -22 -41 -24 -41 -3 0 12 -72 59 -90 59 -9 0 -25 -6 -35 -14
-18 -13 -18 -15 12 -49 27 -31 31 -41 26 -76 -3 -23 1 -58 10 -85 l15 -45 -50
-68 c-28 -37 -54 -72 -58 -76 -4 -5 -24 13 -44 40 -21 26 -56 68 -80 93 -71
74 -296 329 -296 335 0 3 9 5 19 5 24 0 36 33 20 57 -8 14 -6 44 13 135 l23
117 55 -34 c125 -78 275 -68 375 23 67 61 95 107 95 155 0 40 -6 52 -42 92
-41 45 -45 47 -88 42 -39 -4 -52 -12 -95 -60 -27 -30 -64 -61 -82 -71 -32 -16
-117 -21 -162 -9 -21 5 -22 10 -17 47 8 48 45 166 57 182 5 6 37 14 72 16 75
6 139 37 164 78 9 16 25 30 35 30 23 0 129 -48 186 -84 24 -15 46 -25 48 -23
10 10 -74 69 -146 104 -41 21 -76 38 -78 39 -1 0 0 9 4 18 11 29 112 17 252
-30 66 -22 82 -15 27 12 -60 29 -163 60 -227 69 -45 6 -48 8 -48 35 0 26 5 31
43 41 23 6 84 12 134 13 51 0 93 4 93 8 0 12 -110 21 -176 14 -35 -4 -64 -4
-64 -1 0 3 7 19 15 36 49 93 37 200 -42 391 -16 37 -15 38 26 107 22 38 41 77
41 85 0 37 -84 15 -287 -76 -65 -29 -120 -48 -129 -44 -14 5 -13 9 9 26 14 11
30 20 36 20 6 0 7 8 4 18 -6 14 -4 15 8 5 12 -10 22 -8 52 12 20 14 41 25 46
25 6 0 11 4 11 10 0 5 8 9 18 8 66 -5 67 -4 66 77 0 41 3 75 8 75 4 0 14 14
23 30 9 17 11 30 5 30 -5 0 -10 5 -10 11 0 6 6 9 14 6 20 -8 44 57 58 155 20
141 -17 353 -62 353 -10 0 -14 -8 -12 -25 1 -14 4 -65 6 -115 3 -93 3 -94 -51
-211 -12 -28 -23 -56 -23 -62 0 -7 -10 -23 -22 -37 l-21 -24 -14 25 c-7 15
-13 39 -13 54 0 15 -7 33 -15 40 -11 9 -12 16 -5 25 5 6 8 14 5 16 -4 5 -11
39 -20 114 -10 77 -27 155 -35 155 -4 0 -13 -33 -20 -72 -7 -40 -18 -88 -25
-108 l-13 -35 -45 95 c-77 164 -84 245 -31 405 20 63 25 92 20 135 -9 91 -26
158 -48 182 -15 18 -18 19 -14 5 7 -22 -45 -223 -82 -313 -24 -61 -105 -205
-144 -257 -11 -15 -13 7 -13 135 0 195 -21 277 -102 406 -30 48 -61 98 -68
112 -7 14 -43 66 -80 115 -69 95 -142 163 -209 197 -23 12 -61 36 -85 54 -24
19 -48 34 -53 34 -23 0 -97 43 -107 63 -10 19 -11 16 -7 -21z m480 -528 c4
-10 1 -14 -6 -12 -15 5 -23 28 -10 28 5 0 13 -7 16 -16z m86 -316 c0 -21 -4
-38 -9 -38 -9 0 -19 70 -12 91 7 21 21 -14 21 -53z m-68 25 c4 -50 -10 -133
-22 -133 -11 0 -13 92 -4 128 7 26 23 29 26 5z m82 -286 c4 -19 3 -26 -4 -22
-5 3 -10 18 -10 32 0 32 5 28 14 -10z m-94 -24 c0 -35 -3 -44 -10 -33 -16 25
-11 80 7 80 2 0 3 -21 3 -47z m95 -168 c6 -29 6 -29 -9 -11 -9 11 -16 29 -16
40 0 28 17 8 25 -29z m745 -159 c0 -3 -4 -8 -10 -11 -5 -3 -10 -1 -10 4 0 6 5
11 10 11 6 0 10 -2 10 -4z m-200 -25 c0 -6 -4 -12 -9 -15 -4 -3 -6 -18 -4 -33
5 -27 5 -27 -11 -8 -23 29 -21 65 4 65 11 0 20 -4 20 -9z m170 -7 c0 -8 -5
-12 -10 -9 -6 4 -8 11 -5 16 9 14 15 11 15 -7z m30 -24 c0 -5 -5 -10 -11 -10
-5 0 -7 5 -4 10 3 6 8 10 11 10 2 0 4 -4 4 -10z m-140 -24 c0 -3 -4 -8 -10
-11 -5 -3 -10 -1 -10 4 0 6 5 11 10 11 6 0 10 -2 10 -4z m110 -6 c0 -5 -2 -10
-4 -10 -3 0 -8 5 -11 10 -3 6 -1 10 4 10 6 0 11 -4 11 -10z m-232 -67 c-2 -13
3 -17 17 -15 14 2 16 0 7 -6 -16 -11 4 -72 24 -72 8 0 14 -2 14 -5 0 -11 -42
-46 -48 -40 -4 3 -1 9 6 14 8 5 5 17 -13 43 -26 38 -30 55 -19 82 8 21 16 20
12 -1z m262 -23 c0 -5 -4 -10 -10 -10 -5 0 -10 5 -10 10 0 6 5 10 10 10 6 0
10 -4 10 -10z m-93 -32 c-3 -8 -6 -5 -6 6 -1 11 2 17 5 13 3 -3 4 -12 1 -19z
m63 12 c0 -5 -5 -10 -11 -10 -5 0 -7 5 -4 10 3 6 8 10 11 10 2 0 4 -4 4 -10z
m-96 -19 c16 -17 16 -20 1 -35 -24 -24 -32 -20 -33 19 -2 39 7 44 32 16z m-49
-11 c3 -5 1 -10 -4 -10 -6 0 -11 5 -11 10 0 6 2 10 4 10 3 0 8 -4 11 -10z
m120 0 c3 -5 -1 -10 -10 -10 -9 0 -13 5 -10 10 3 6 8 10 10 10 2 0 7 -4 10
-10z m-550 -34 c33 -26 101 -123 92 -132 -2 -3 -14 11 -26 30 -27 43 -89 98
-104 93 -7 -2 -11 -14 -10 -26 3 -24 -5 -26 -31 -6 -13 10 -17 21 -12 39 8 34
48 35 91 2z m290 4 c3 -5 -1 -10 -10 -10 -9 0 -13 5 -10 10 3 6 8 10 10 10 2
0 7 -4 10 -10z m55 0 c0 -5 -5 -10 -11 -10 -5 0 -7 5 -4 10 3 6 8 10 11 10 2
0 4 -4 4 -10z m180 0 c0 -5 -7 -10 -15 -10 -8 0 -15 5 -15 10 0 6 7 10 15 10
8 0 15 -4 15 -10z m50 0 c0 -5 -5 -10 -11 -10 -5 0 -7 5 -4 10 3 6 8 10 11 10
2 0 4 -4 4 -10z m-310 -30 c0 -5 -4 -10 -10 -10 -5 0 -10 5 -10 10 0 6 5 10
10 10 6 0 10 -4 10 -10z m170 0 c0 -5 -4 -10 -10 -10 -5 0 -10 5 -10 10 0 6 5
10 10 10 6 0 10 -4 10 -10z m60 0 c0 -5 -4 -10 -10 -10 -5 0 -10 5 -10 10 0 6
5 10 10 10 6 0 10 -4 10 -10z m50 0 c0 -5 -4 -10 -10 -10 -5 0 -10 5 -10 10 0
6 5 10 10 10 6 0 10 -4 10 -10z m-1235 -52 c39 -11 115 -40 170 -64 l99 -44
114 11 c73 7 117 8 123 2 7 -7 -11 -12 -48 -15 -32 -3 -93 -19 -136 -36 l-79
-31 -66 41 c-37 23 -124 70 -194 105 -71 35 -128 65 -128 67 0 4 37 -5 145
-36z m1095 22 c0 -5 -4 -10 -10 -10 -5 0 -10 5 -10 10 0 6 5 10 10 10 6 0 10
-4 10 -10z m60 0 c0 -5 -4 -10 -10 -10 -5 0 -10 5 -10 10 0 6 5 10 10 10 6 0
10 -4 10 -10z m50 0 c0 -5 -4 -10 -10 -10 -5 0 -10 5 -10 10 0 6 5 10 10 10 6
0 10 -4 10 -10z m-495 -37 l18 -28 -21 19 c-12 11 -22 23 -22 28 0 14 7 9 25
-19z m355 7 c0 -5 -4 -10 -10 -10 -5 0 -10 5 -10 10 0 6 5 10 10 10 6 0 10 -4
10 -10z m60 6 c0 -3 -4 -8 -10 -11 -5 -3 -10 -1 -10 4 0 6 5 11 10 11 6 0 10
-2 10 -4z m110 -6 c0 -5 -2 -10 -4 -10 -3 0 -8 5 -11 10 -3 6 -1 10 4 10 6 0
11 -4 11 -10z m-80 -24 c0 -3 -4 -8 -10 -11 -5 -3 -10 -1 -10 4 0 6 5 11 10
11 6 0 10 -2 10 -4z m-90 -36 c0 -5 -2 -10 -4 -10 -3 0 -8 5 -11 10 -3 6 -1
10 4 10 6 0 11 -4 11 -10z m-259 -17 c13 -16 12 -17 -3 -4 -10 7 -18 15 -18
17 0 8 8 3 21 -13z m534 -70 c-33 -53 -67 -94 -72 -89 -8 8 71 116 85 116 2 0
-4 -12 -13 -27z m-1575 -292 c6 -16 10 -42 8 -57 l-3 -29 -18 32 c-18 34 -23
83 -8 83 5 0 14 -13 21 -29z m-65 -92 c9 -17 15 -40 13 -52 -3 -20 -5 -19 -21
10 -16 30 -23 73 -12 73 2 0 12 -14 20 -31z m-36 -71 c17 -55 24 -118 13 -118
-13 0 -42 85 -42 122 0 38 16 35 29 -4z m171 -67 c0 -23 -1 -24 -20 -6 -20 18
-26 46 -13 58 10 10 32 -25 33 -52z m1183 -61 c20 0 37 -4 37 -10 0 -5 -26 -8
-57 -7 -32 1 -68 -2 -80 -6 -17 -6 -24 -3 -34 14 -11 22 -11 22 42 16 30 -4
71 -7 92 -7z m-1246 -35 c13 -40 2 -47 -15 -10 -14 31 -15 45 -4 45 5 0 13
-16 19 -35z m-18 -180 c0 -5 -9 1 -19 14 -11 13 -20 33 -20 45 1 17 4 14 20
-14 11 -19 19 -39 19 -45z m871 45 c19 -10 19 -11 -2 -46 -11 -19 -22 -34 -23
-32 -1 2 -5 22 -8 46 -5 44 0 49 33 32z m410 -67 c0 -5 -5 -15 -10 -23 -8 -12
-10 -11 -10 8 0 12 5 22 10 22 6 0 10 -3 10 -7z m360 -154 c-19 -11 -50 -41
-68 -65 -18 -24 -49 -51 -69 -59 -49 -20 -165 -31 -189 -17 -15 9 -7 11 44 12
85 0 127 20 193 90 47 51 60 60 90 60 l34 0 -35 -21z m-846 -427 c-22 -5 -27
3 -19 29 l7 22 14 -24 c11 -20 10 -25 -2 -27z m256 -9 c0 -7 -9 -13 -20 -13
-23 0 -24 3 -8 30 13 20 28 10 28 -17z m790 -173 c0 -19 -18 -19 -23 -1 -3 14
-1 18 9 14 8 -3 14 -9 14 -13z m120 -1 c0 -6 -4 -7 -10 -4 -5 3 -10 11 -10 16
0 6 5 7 10 4 6 -3 10 -11 10 -16z m-250 -70 c0 -6 -4 -7 -10 -4 -5 3 -10 11
-10 16 0 6 5 7 10 4 6 -3 10 -11 10 -16z m-1203 -119 c8 -12 9 -21 3 -25 -15
-9 -30 4 -30 26 0 24 12 24 27 -1z m-147 -51 c0 -5 -7 -9 -15 -9 -9 0 -15 9
-15 21 0 18 2 19 15 9 8 -7 15 -16 15 -21z m270 5 c0 -8 -4 -14 -10 -14 -5 0
-10 9 -10 21 0 11 5 17 10 14 6 -3 10 -13 10 -21z"/>
<path d="M3376 4534 c-3 -9 -6 -26 -6 -39 0 -12 -9 -51 -21 -86 -25 -78 -27
-187 -5 -262 25 -82 31 -87 62 -52 33 37 50 77 59 135 18 125 -58 386 -89 304z"/>
<path d="M2164 4335 c-9 -34 -13 -70 -9 -93 7 -42 44 -113 62 -119 17 -6 53
70 53 113 0 42 -55 154 -76 154 -8 0 -20 -24 -30 -55z"/>
<path d="M1756 3426 c-16 -34 -26 -72 -26 -101 0 -52 23 -115 42 -115 18 0 59
66 65 106 7 43 -24 164 -42 164 -8 0 -25 -24 -39 -54z"/>
<path d="M2070 3167 c0 -7 10 -28 23 -47 13 -19 47 -79 77 -134 30 -54 56 -93
58 -86 2 6 -19 58 -47 116 -27 57 -47 104 -44 104 4 0 60 -32 125 -72 65 -39
120 -69 123 -66 11 11 -274 198 -302 198 -7 0 -13 -6 -13 -13z"/>
<path d="M3340 2875 c-135 -110 -152 -127 -138 -141 15 -15 163 -26 192 -15
25 10 12 18 -44 26 -57 8 -59 11 -18 21 l33 8 -38 6 -38 5 71 55 c38 30 70 60
70 67 0 25 -36 12 -90 -32z"/>
<path d="M2644 2898 c-4 -7 0 -16 10 -22 10 -6 33 -20 50 -31 17 -11 64 -40
104 -64 40 -24 71 -45 69 -47 -1 -2 -39 8 -82 21 -89 28 -119 31 -113 13 2 -7
44 -26 93 -43 l90 -29 -40 -11 c-44 -13 -59 -35 -23 -35 13 0 54 7 92 15 111
23 119 44 34 90 -28 15 -98 56 -155 91 -58 35 -109 64 -114 64 -4 0 -11 -5
-15 -12z"/>
<path d="M3157 2867 c-4 -10 -7 -28 -6 -40 0 -21 1 -21 10 2 5 14 8 32 7 40
-3 13 -5 13 -11 -2z"/>
<path d="M3097 2828 c-7 -24 4 -48 29 -69 16 -13 17 -12 9 6 -4 11 -10 35 -13
53 -5 37 -17 42 -25 10z"/>
<path d="M3001 2820 c14 -31 19 -36 19 -24 0 6 -7 19 -16 30 -14 18 -14 18 -3
-6z"/>
<path d="M3034 2814 c3 -9 6 -29 6 -45 0 -31 17 -39 26 -14 7 18 -14 75 -28
75 -6 0 -7 -7 -4 -16z"/>
<path d="M3138 2653 c-21 -5 -24 -23 -4 -23 22 0 46 11 46 21 0 9 -13 10 -42
2z"/>
<path d="M2507 2640 c-32 -4 -60 -10 -63 -12 -2 -3 49 -8 114 -11 127 -6 205
-26 339 -88 40 -18 75 -30 79 -27 28 28 -186 122 -303 133 -32 3 -69 7 -83 9
-14 1 -51 -1 -83 -4z"/>
<path d="M3135 2610 l-50 -6 38 -8 c41 -9 123 0 132 15 7 10 -40 10 -120 -1z"/>
<path d="M2577 2200 c-25 -114 -30 -177 -19 -225 l10 -40 1 59 c1 32 8 100 17
151 21 123 14 163 -9 55z"/>
<path d="M2526 1762 c-11 -18 11 -76 39 -102 35 -33 53 -21 22 16 -14 16 -32
45 -39 64 -9 23 -17 30 -22 22z"/>
<path d="M2500 1689 c0 -9 7 -22 15 -29 19 -16 19 0 0 26 -12 16 -14 16 -15 3z"/>
<path d="M2115 1500 c3 -5 8 -10 11 -10 2 0 4 5 4 10 0 6 -5 10 -11 10 -5 0
-7 -4 -4 -10z"/>
<path d="M1690 1190 c0 -5 5 -10 11 -10 5 0 7 5 4 10 -3 6 -8 10 -11 10 -2 0
-4 -4 -4 -10z"/>
<path d="M1970 1190 c0 -5 5 -10 10 -10 6 0 10 5 10 10 0 6 -4 10 -10 10 -5 0
-10 -4 -10 -10z"/>
<path d="M2030 1190 c0 -5 5 -10 11 -10 5 0 7 5 4 10 -3 6 -8 10 -11 10 -2 0
-4 -4 -4 -10z"/>
<path d="M2060 1159 c0 -5 5 -7 10 -4 6 3 10 8 10 11 0 2 -4 4 -10 4 -5 0 -10
-5 -10 -11z"/>
<path d="M2035 1130 c-3 -5 -1 -10 4 -10 6 0 11 5 11 10 0 6 -2 10 -4 10 -3 0
-8 -4 -11 -10z"/>
<path d="M2115 1050 c-3 -5 -1 -10 4 -10 6 0 11 5 11 10 0 6 -2 10 -4 10 -3 0
-8 -4 -11 -10z"/>
<path d="M2030 1020 c0 -5 5 -10 10 -10 6 0 10 5 10 10 0 6 -4 10 -10 10 -5 0
-10 -4 -10 -10z"/>
<path d="M2090 1014 c0 -8 5 -12 10 -9 6 4 8 11 5 16 -9 14 -15 11 -15 -7z"/>
<path d="M2000 990 c0 -5 5 -10 10 -10 6 0 10 5 10 10 0 6 -4 10 -10 10 -5 0
-10 -4 -10 -10z"/>
<path d="M2060 990 c0 -5 5 -10 11 -10 5 0 7 5 4 10 -3 6 -8 10 -11 10 -2 0
-4 -4 -4 -10z"/>
<path d="M1800 960 c0 -5 5 -10 10 -10 6 0 10 5 10 10 0 6 -4 10 -10 10 -5 0
-10 -4 -10 -10z"/>
<path d="M1860 960 c0 -5 5 -10 10 -10 6 0 10 5 10 10 0 6 -4 10 -10 10 -5 0
-10 -4 -10 -10z"/>
<path d="M1975 960 c3 -5 8 -10 11 -10 2 0 4 5 4 10 0 6 -5 10 -11 10 -5 0 -7
-4 -4 -10z"/>
<path d="M1945 930 c3 -5 8 -10 11 -10 2 0 4 5 4 10 0 6 -5 10 -11 10 -5 0 -7
-4 -4 -10z"/>
<path d="M2115 930 c3 -5 8 -10 11 -10 2 0 4 5 4 10 0 6 -5 10 -11 10 -5 0 -7
-4 -4 -10z"/>
<path d="M1945 820 c-3 -5 -1 -10 4 -10 6 0 11 5 11 10 0 6 -2 10 -4 10 -3 0
-8 -4 -11 -10z"/>
<path d="M1970 790 c0 -5 5 -10 10 -10 6 0 10 5 10 10 0 6 -4 10 -10 10 -5 0
-10 -4 -10 -10z"/>
</g>
</svg>
